<svg width="18" height="18" viewBox="0 0 18 18" fill="none" xmlns="http://www.w3.org/2000/svg">
<path d="M15.9627 6.20682L11.4996 5.55819L9.50449 1.51346C9.45 1.40272 9.36035 1.31307 9.24961 1.25858C8.97188 1.12147 8.63438 1.23572 8.49551 1.51346L6.50039 5.55819L2.03731 6.20682C1.91426 6.2244 1.80176 6.2824 1.71563 6.37029C1.6115 6.47732 1.55412 6.62131 1.5561 6.77062C1.55807 6.91993 1.61925 7.06235 1.72617 7.16658L4.95528 10.3148L4.19239 14.7603C4.1745 14.8637 4.18594 14.9701 4.22542 15.0673C4.2649 15.1646 4.33083 15.2488 4.41575 15.3105C4.50066 15.3722 4.60116 15.4088 4.70584 15.4163C4.81052 15.4237 4.9152 15.4017 5.00801 15.3527L9 13.2539L12.992 15.3527C13.101 15.4107 13.2275 15.4301 13.3488 15.409C13.6547 15.3562 13.8604 15.0662 13.8076 14.7603L13.0447 10.3148L16.2738 7.16658C16.3617 7.08045 16.4197 6.96795 16.4373 6.8449C16.4848 6.53729 16.2703 6.25252 15.9627 6.20682Z" fill="#FFD33C"/>
</svg>
